g Cube_fracturepart3
v -0.0133815 -0.1392245 -0.08727741
v 0.1461664 -0.08014951 -0.08727741
v 0.09829362 0.104381 -0.08727741
v -0.002990209 0.1392245 -0.08727741
v -0.1461664 0.004335159 -0.08727741
v -0.07784285 -0.1128729 -0.08727741
v 0.09223822 0.08047101 0.08727741
v 0.1331777 -0.07733475 0.08727741
v -0.008868847 -0.1299296 0.08727741
v 0.01452813 0.1072047 0.08727741
v -0.1178383 -0.01750057 0.08727741
v -0.06588814 -0.1066203 0.08727741
v -0.07784285 -0.1128729 -0.08727741
v -0.1461664 0.004335159 -0.08727741
v -0.1178383 -0.01750057 0.08727741
v -0.06588814 -0.1066203 0.08727741
v 0.09829362 0.104381 -0.08727741
v 0.1461664 -0.08014951 -0.08727741
v 0.1331777 -0.07733475 0.08727741
v 0.09223822 0.08047101 0.08727741
v -0.002990209 0.1392245 -0.08727741
v 0.09829362 0.104381 -0.08727741
v 0.09223822 0.08047101 0.08727741
v 0.01452813 0.1072047 0.08727741
v 0.1461664 -0.08014951 -0.08727741
v -0.0133815 -0.1392245 -0.08727741
v -0.008868847 -0.1299296 0.08727741
v 0.1331777 -0.07733475 0.08727741
v -0.1461664 0.004335159 -0.08727741
v -0.002990209 0.1392245 -0.08727741
v 0.01452813 0.1072047 0.08727741
v -0.1178383 -0.01750057 0.08727741
v -0.06588814 -0.1066203 0.08727741
v -0.008868847 -0.1299296 0.08727741
v -0.0133815 -0.1392245 -0.08727741
v -0.07784285 -0.1128729 -0.08727741
vt 0.5766602 0.2634277
vt 0.4785156 0.3024902
vt 0.5078125 0.4245605
vt 0.5703125 0.4475098
vt 0.6586914 0.3583984
vt 0.6166992 0.2807617
vt 0.8657227 0.4086914
vt 0.8911133 0.3041992
vt 0.8032227 0.2695313
vt 0.8178711 0.4262695
vt 0.7363281 0.34375
vt 0.7680664 0.2849121
vt 0.1063232 0.9208984
vt 0.1066895 0.9208984
vt 0.1066284 0.9213867
vt 0.1063232 0.9213867
vt 0.1069946 0.9208984
vt 0.1064453 0.9208984
vt 0.1064453 0.9213867
vt 0.1069336 0.9213867
vt 0.1079102 0.9208984
vt 0.1082153 0.9208984
vt 0.1082153 0.9213867
vt 0.1079712 0.9213867
vt 0.1083984 0.9208984
vt 0.1079102 0.9208984
vt 0.1079102 0.9213867
vt 0.1083374 0.9213867
vt 0.1074829 0.9208984
vt 0.1079102 0.9208984
vt 0.1079712 0.9213867
vt 0.107605 0.9213867
vt 0.1077271 0.9213867
vt 0.1079102 0.9213867
vt 0.1079102 0.9208984
vt 0.1077271 0.9208984
vn 0 0 -1
vn 0 0 -1
vn 0 0 -1
vn 0 0 -1
vn 0 0 -1
vn 0 0 -1
vn 0 0 1
vn 0 0 1
vn 0 0 1
vn 0 0 1
vn 0 0 1
vn 0 0 1
vn -0.6542969 -0.7529297 0.07177734
vn -0.8613281 -0.5019531 0.07696533
vn -0.8613281 -0.5019531 0.07696533
vn -0.6542969 -0.7529297 0.07177734
vn 0.9658203 0.2504883 0.06781006
vn 0.9658203 0.2504883 0.06781006
vn 0.9658203 0.2504883 0.06781006
vn 0.9658203 0.2504883 0.06781006
vn 0.3220215 0.9365234 0.1394043
vn 0.3220215 0.9365234 0.1394043
vn 0.3220215 0.9365234 0.1394043
vn 0.3220215 0.9365234 0.1394043
vn 0.3469238 -0.9370117 0.04092407
vn 0.3469238 -0.9370117 0.04092407
vn 0.3469238 -0.9370117 0.04092407
vn 0.3469238 -0.9370117 0.04092407
vn -0.671875 0.7133789 0.1983643
vn -0.671875 0.7133789 0.1983643
vn -0.671875 0.7133789 0.1983643
vn -0.671875 0.7133789 0.1983643
vn -0.6542969 -0.7529297 0.07177734
vn -0.3776855 -0.9238281 0.05895996
vn -0.3776855 -0.9238281 0.05895996
vn -0.6542969 -0.7529297 0.07177734
g Cube_fracturepart3_0
f 3/3/3 2/2/2 1/1/1
f 1/1/1 4/4/4 3/3/3
f 1/1/1 5/5/5 4/4/4
f 1/1/1 6/6/6 5/5/5
f 9/9/9 8/8/8 7/7/7
f 7/7/7 10/10/10 9/9/9
f 10/10/10 11/11/11 9/9/9
f 11/11/11 12/12/12 9/9/9
f 15/15/15 14/14/14 13/13/13
f 16/16/16 15/15/15 13/13/13
f 19/19/19 18/18/18 17/17/17
f 20/20/20 19/19/19 17/17/17
f 23/23/23 22/22/22 21/21/21
f 24/24/24 23/23/23 21/21/21
f 27/27/27 26/26/26 25/25/25
f 28/28/28 27/27/27 25/25/25
f 31/31/31 30/30/30 29/29/29
f 32/32/32 31/31/31 29/29/29
f 35/35/35 34/34/34 33/33/33
f 36/36/36 35/35/35 33/33/33
