g Cube_fracturepart5
v 0.1890986 -0.3294235 0.03
v 0.2860022 0.3323258 0.03
v 0.2842585 0.3323258 -0.03
v 0.18693 -0.3323258 -0.03
v 0.18693 -0.3323258 -0.03
v 0.2842585 0.3323258 -0.03
v -0.2860022 0.3323258 -0.03
v -0.2860022 -0.306137 -0.03
v -0.2860022 -0.3031145 0.03
v -0.2860022 -0.306137 -0.03
v -0.2860022 0.3323258 -0.03
v -0.2860022 0.3323258 0.03
v 0.2842585 0.3323258 -0.03
v 0.2860022 0.3323258 0.03
v -0.2860022 0.3323258 0.03
v -0.2860022 0.3323258 -0.03
v 0.18693 -0.3323258 -0.03
v -0.2860022 -0.306137 -0.03
v -0.2860022 -0.3031145 0.03
v 0.1890986 -0.3294235 0.03
v 0.1890986 -0.3294235 0.03
v -0.2860022 -0.3031145 0.03
v -0.2860022 0.3323258 0.03
v 0.2860022 0.3323258 0.03
vt 0.5292969 0.5097656
vt 0.7485352 0.5097656
vt 0.7485352 0.4899902
vt 0.5283203 0.4899902
vt 0.8422852 0.5571289
vt 0.8100586 1
vt 1 1
vt 1 0.5742188
vt 1 0.5761719
vt 0 0.5742188
vt 0 1
vt 1 1
vt 0.1900635 1
vt 0.1906738 0
vt 0 0
vt 0 1
vt 0.1599121 0.4899902
vt 0.003311157 0.4899902
vt 0.003311157 0.5097656
vt 0.1606445 0.5097656
vt 0.1583252 0.5585938
vt 0 0.5761719
vt 0 1
vt 0.1906738 1
vn 0.9892578 -0.1447754 -0.02874756
vn 0.9892578 -0.1447754 -0.02874756
vn 0.9892578 -0.1447754 -0.02874756
vn 0.9892578 -0.1447754 -0.02874756
vn 0 0 -1
vn 0 0 -1
vn 0 0 -1
vn 0 0 -1
vn -1 0 0
vn -1 0 0
vn -1 0 0
vn -1 0 0
vn 0 1 0
vn 0 1 0
vn 0 1 0
vn 0 1 0
vn -0.0552063 -0.9970703 0.05023193
vn -0.0552063 -0.9970703 0.05023193
vn -0.0552063 -0.9970703 0.05023193
vn -0.0552063 -0.9970703 0.05023193
vn 0 0 1
vn 0 0 1
vn 0 0 1
vn 0 0 1
g Cube_fracturepart5_0
f 3/3/3 2/2/2 1/1/1
f 4/4/4 3/3/3 1/1/1
f 7/7/7 6/6/6 5/5/5
f 8/8/8 7/7/7 5/5/5
f 11/11/11 10/10/10 9/9/9
f 12/12/12 11/11/11 9/9/9
f 15/15/15 14/14/14 13/13/13
f 16/16/16 15/15/15 13/13/13
f 19/19/19 18/18/18 17/17/17
f 20/20/20 19/19/19 17/17/17
f 23/23/23 22/22/22 21/21/21
f 24/24/24 23/23/23 21/21/21
