g Cube_fracturepart2
v 0.07915911 0.08677167 0.08727741
v 0.1013285 -0.002599437 0.08727741
v -0.03103794 -0.1273047 0.08727741
v 0.02344477 0.1273047 0.08727741
v -0.08320305 0.07382639 0.08727741
v -0.1013285 -0.07025877 0.08727741
v -0.05936601 -0.105469 -0.08727741
v 0.08381013 0.02942039 -0.08727741
v 0.07176619 0.07797301 -0.08727741
v 0.03078457 0.1077878 -0.08727741
v -0.07577331 0.05435454 -0.08727741
v -0.09249619 -0.0785814 -0.08727741
v 0.1013285 -0.002599437 0.08727741
v 0.07915911 0.08677167 0.08727741
v 0.07176619 0.07797301 -0.08727741
v 0.08381013 0.02942039 -0.08727741
v -0.08320305 0.07382639 0.08727741
v -0.1013285 -0.07025877 0.08727741
v -0.09249619 -0.0785814 -0.08727741
v -0.07577331 0.05435454 -0.08727741
v 0.02344477 0.1273047 0.08727741
v -0.08320305 0.07382639 0.08727741
v -0.07577331 0.05435454 -0.08727741
v 0.03078457 0.1077878 -0.08727741
v -0.1013285 -0.07025877 0.08727741
v -0.03103794 -0.1273047 0.08727741
v -0.05936601 -0.105469 -0.08727741
v -0.09249619 -0.0785814 -0.08727741
v 0.07915911 0.08677167 0.08727741
v 0.02344477 0.1273047 0.08727741
v 0.03078457 0.1077878 -0.08727741
v 0.07176619 0.07797301 -0.08727741
v -0.03103794 -0.1273047 0.08727741
v 0.1013285 -0.002599437 0.08727741
v 0.08381013 0.02942039 -0.08727741
v -0.05936601 -0.105469 -0.08727741
vt 0.8041992 0.4853516
vt 0.8178711 0.4262695
vt 0.7363281 0.34375
vt 0.7695313 0.512207
vt 0.7041016 0.4768066
vt 0.6928711 0.3815918
vt 0.6586914 0.3583984
vt 0.5703125 0.4475098
vt 0.5776367 0.4794922
vt 0.6030273 0.4992676
vt 0.6689453 0.4638672
vt 0.6791992 0.3759766
vt 0.1069946 0.9213867
vt 0.1072998 0.9213867
vt 0.1072388 0.9208984
vt 0.1071167 0.9208984
vt 0.1072388 0.9213867
vt 0.1068115 0.9213867
vt 0.1067505 0.9208984
vt 0.1071777 0.9208984
vt 0.1077271 0.9213867
vt 0.1074219 0.9213867
vt 0.1074219 0.9208984
vt 0.1077881 0.9208984
vt 0.1073608 0.9213867
vt 0.107605 0.9213867
vt 0.1074829 0.9208984
vt 0.1073608 0.9208984
vt 0.1079102 0.9213867
vt 0.1077271 0.9213867
vt 0.1077881 0.9208984
vt 0.1079102 0.9208984
vt 0.107605 0.9213867
vt 0.1079712 0.9213867
vt 0.1079102 0.9208984
vt 0.1074829 0.9208984
vn 0 0 1
vn 0 0 1
vn 0 0 1
vn 0 0 1
vn 0 0 1
vn 0 0 1
vn 0 0 -1
vn 0 0 -1
vn 0 0 -1
vn 0 0 -1
vn 0 0 -1
vn 0 0 -1
vn 0.9692383 0.2404785 -0.05316162
vn 0.828125 0.5571289 -0.06317139
vn 0.828125 0.5571289 -0.06317139
vn 0.9692383 0.2404785 -0.05316162
vn -0.9907227 0.1246338 -0.05606079
vn -0.9907227 0.1246338 -0.05606079
vn -0.9907227 0.1246338 -0.05606079
vn -0.9907227 0.1246338 -0.05606079
vn -0.4450684 0.8876953 -0.117981
vn -0.4450684 0.8876953 -0.117981
vn -0.4450684 0.8876953 -0.117981
vn -0.4450684 0.8876953 -0.117981
vn -0.6303711 -0.7763672 0.005134583
vn -0.6303711 -0.7763672 0.005134583
vn -0.6303711 -0.7763672 0.005134583
vn -0.6303711 -0.7763672 0.005134583
vn 0.828125 0.5571289 -0.06317139
vn 0.5869141 0.8071289 -0.06555176
vn 0.5869141 0.8071289 -0.06555176
vn 0.828125 0.5571289 -0.06317139
vn 0.671875 -0.7133789 -0.1983643
vn 0.671875 -0.7133789 -0.1983643
vn 0.671875 -0.7133789 -0.1983643
vn 0.671875 -0.7133789 -0.1983643
g Cube_fracturepart2_0
f 3/3/3 2/2/2 1/1/1
f 1/1/1 4/4/4 3/3/3
f 4/4/4 5/5/5 3/3/3
f 5/5/5 6/6/6 3/3/3
f 9/9/9 8/8/8 7/7/7
f 7/7/7 10/10/10 9/9/9
f 7/7/7 11/11/11 10/10/10
f 7/7/7 12/12/12 11/11/11
f 15/15/15 14/14/14 13/13/13
f 16/16/16 15/15/15 13/13/13
f 19/19/19 18/18/18 17/17/17
f 20/20/20 19/19/19 17/17/17
f 23/23/23 22/22/22 21/21/21
f 24/24/24 23/23/23 21/21/21
f 27/27/27 26/26/26 25/25/25
f 28/28/28 27/27/27 25/25/25
f 31/31/31 30/30/30 29/29/29
f 32/32/32 31/31/31 29/29/29
f 35/35/35 34/34/34 33/33/33
f 36/36/36 35/35/35 33/33/33
