g Cube_fracturepart2
v -0.07321074 0.2577869 0.03
v 0.1979342 0.08159558 0.03
v 0.0267103 -0.2575851 0.03
v -0.1979342 -0.001411111 0.03
v -0.08656234 0.2592977 0.03
v 0.0238691 -0.2592977 -0.03
v 0.1952878 0.08026882 -0.03
v -0.06953707 0.2523533 -0.03
v -0.1887354 -0.01685366 -0.03
v -0.07353969 0.2528062 -0.03
v 0.1979342 0.08159558 0.03
v -0.07321074 0.2577869 0.03
v -0.06953707 0.2523533 -0.03
v 0.1952878 0.08026882 -0.03
v -0.08656234 0.2592977 0.03
v -0.1979342 -0.001411111 0.03
v -0.1887354 -0.01685366 -0.03
v -0.07353969 0.2528062 -0.03
v -0.1979342 -0.001411111 0.03
v 0.0267103 -0.2575851 0.03
v 0.0238691 -0.2592977 -0.03
v -0.1887354 -0.01685366 -0.03
v -0.07321074 0.2577869 0.03
v -0.08656234 0.2592977 0.03
v -0.07353969 0.2528062 -0.03
v -0.06953707 0.2523533 -0.03
v 0.1952878 0.08026882 -0.03
v 0.0238691 -0.2592977 -0.03
v 0.0267103 -0.2575851 0.03
v 0.1979342 0.08159558 0.03
vt 0.4592285 0.4509277
vt 0.5498047 0.3334961
vt 0.4924316 0.1072998
vt 0.4177246 0.2780762
vt 0.454834 0.4519043
vt 0.5083008 0.1061401
vt 0.451416 0.3325195
vt 0.5395508 0.4472656
vt 0.5791016 0.2678223
vt 0.5410156 0.4475098
vt 0.5493164 0.5097656
vt 0.4594727 0.5097656
vt 0.4606934 0.4899902
vt 0.5483398 0.4899902
vt 0.4760742 0.5097656
vt 0.3898926 0.5097656
vt 0.3847656 0.4899902
vt 0.473877 0.4899902
vt 0.3898926 0.5097656
vt 0.3049316 0.5097656
vt 0.3044434 0.4899902
vt 0.3847656 0.4899902
vt 0.4594727 0.5097656
vt 0.4550781 0.5097656
vt 0.4594727 0.4899902
vt 0.4606934 0.4899902
vt 0.416748 0.4899902
vt 0.3044434 0.4899902
vt 0.3049316 0.5097656
vt 0.4172363 0.5097656
vn 0 0 1
vn 0 0 1
vn 0 0 1
vn 0 0 1
vn 0 0 1
vn 0 0 -1
vn 0 0 -1
vn 0 0 -1
vn 0 0 -1
vn 0 0 -1
vn 0.5444336 0.8378906 -0.0425415
vn 0.5444336 0.8378906 -0.0425415
vn 0.5444336 0.8378906 -0.0425415
vn 0.5444336 0.8378906 -0.0425415
vn -0.8935547 0.3818359 -0.2353516
vn -0.8935547 0.3818359 -0.2353516
vn -0.8935547 0.3818359 -0.2353516
vn -0.8935547 0.3818359 -0.2353516
vn -0.7509766 -0.6582031 0.05435181
vn -0.7509766 -0.6582031 0.05435181
vn -0.7509766 -0.6582031 0.05435181
vn -0.7509766 -0.6582031 0.05435181
vn 0.1120605 0.9902344 -0.08282471
vn 0.1120605 0.9902344 -0.08282471
vn 0.1120605 0.9902344 -0.08282471
vn 0.1120605 0.9902344 -0.08282471
vn 0.8920898 -0.4504395 -0.02940369
vn 0.8920898 -0.4504395 -0.02940369
vn 0.8920898 -0.4504395 -0.02940369
vn 0.8920898 -0.4504395 -0.02940369
g Cube_fracturepart2_0
f 3/3/3 2/2/2 1/1/1
f 1/1/1 4/4/4 3/3/3
f 1/1/1 5/5/5 4/4/4
f 8/8/8 7/7/7 6/6/6
f 6/6/6 9/9/9 8/8/8
f 9/9/9 10/10/10 8/8/8
f 13/13/13 12/12/12 11/11/11
f 14/14/14 13/13/13 11/11/11
f 17/17/17 16/16/16 15/15/15
f 18/18/18 17/17/17 15/15/15
f 21/21/21 20/20/20 19/19/19
f 22/22/22 21/21/21 19/19/19
f 25/25/25 24/24/24 23/23/23
f 26/26/26 25/25/25 23/23/23
f 29/29/29 28/28/28 27/27/27
f 30/30/30 29/29/29 27/27/27
