g Cube_fracturepart6
v -0.01961748 0.1767374 0.08727741
v 0.1230798 0.1635505 0.08727741
v 0.1230798 -0.1182309 0.08727741
v -0.04031033 -0.1767374 0.08727741
v -0.0664809 0.1511447 0.08727741
v -0.1175248 -0.1152356 0.08727741
v -0.1230798 -0.009122808 0.08727741
v -0.03645899 -0.1567456 -0.08727741
v 0.1230798 -0.09961817 -0.08727741
v 0.1230798 0.1639442 -0.08727741
v -0.01077608 0.1763141 -0.08727741
v -0.03713308 0.1619203 -0.08727741
v -0.09497344 -0.1101385 -0.08727741
v -0.09990989 -0.01584105 -0.08727741
v -0.04031033 -0.1767374 0.08727741
v 0.1230798 -0.1182309 0.08727741
v 0.1230798 -0.09961817 -0.08727741
v -0.03645899 -0.1567456 -0.08727741
v -0.01077608 0.1763141 -0.08727741
v 0.1230798 0.1639442 -0.08727741
v 0.1230798 0.1635505 0.08727741
v -0.01961748 0.1767374 0.08727741
v -0.03713308 0.1619203 -0.08727741
v -0.0664809 0.1511447 0.08727741
v -0.09990989 -0.01584105 -0.08727741
v -0.03713308 0.1619203 -0.08727741
v -0.0664809 0.1511447 0.08727741
v -0.1230798 -0.009122808 0.08727741
v -0.09497344 -0.1101385 -0.08727741
v -0.1175248 -0.1152356 0.08727741
v 0.1230798 -0.09961817 -0.08727741
v 0.1230798 -0.1182309 0.08727741
v 0.1230798 0.1635505 0.08727741
v 0.1230798 0.1639442 -0.08727741
v -0.1175248 -0.1152356 0.08727741
v -0.04031033 -0.1767374 0.08727741
v -0.03645899 -0.1567456 -0.08727741
v -0.09497344 -0.1101385 -0.08727741
vt 0.9091797 0.7006836
vt 0.9970703 0.6918945
vt 0.9970703 0.5053711
vt 0.8959961 0.4667969
vt 0.8798828 0.6835938
vt 0.8486328 0.5078125
vt 0.8452148 0.5776367
vt 0.4787598 0.4802246
vt 0.3803711 0.5180664
vt 0.3803711 0.6923828
vt 0.4628906 0.7001953
vt 0.479248 0.690918
vt 0.5146484 0.5107422
vt 0.5180664 0.5732422
vt 0.1083984 0.9213867
vt 0.1088867 0.9213867
vt 0.1088867 0.9208984
vt 0.1083984 0.9208984
vt 0.1084595 0.9208984
vt 0.1088867 0.9208984
vt 0.1088867 0.9213867
vt 0.1084595 0.9213867
vt 0.1083984 0.9208984
vt 0.1082764 0.9213867
vt 0.107666 0.9208984
vt 0.1082153 0.9208984
vt 0.1082153 0.9213867
vt 0.1077271 0.9213867
vt 0.1074219 0.9208984
vt 0.1073608 0.9213867
vt 0.3642578 0.5175781
vt 0.1975098 0.5053711
vt 0.1975098 0.6914063
vt 0.3642578 0.6918945
vt 0.1081543 0.9213867
vt 0.1083984 0.9213867
vt 0.1083984 0.9208984
vt 0.1082153 0.9208984
vn 0 0 1
vn 0 0 1
vn 0 0 1
vn 0 0 1
vn 0 0 1
vn 0 0 1
vn 0 0 1
vn 0 0 -1
vn 0 0 -1
vn 0 0 -1
vn 0 0 -1
vn 0 0 -1
vn 0 0 -1
vn 0 0 -1
vn 0.3354492 -0.9365234 -0.09991455
vn 0.3354492 -0.9365234 -0.09991455
vn 0.3354492 -0.9365234 -0.09991455
vn 0.3354492 -0.9365234 -0.09991455
vn -0.2023926 0.9790039 -0.01262665
vn 0.09204102 0.9956055 0.002246857
vn 0.09204102 0.9956055 0.002246857
vn -0.2023926 0.9790039 -0.01262665
vn -0.479248 0.8774414 -0.02639771
vn -0.479248 0.8774414 -0.02639771
vn -0.9804688 0.1417236 -0.1356201
vn -0.934082 0.329834 -0.1367188
vn -0.934082 0.329834 -0.1367188
vn -0.9804688 0.1417236 -0.1356201
vn -0.9902344 -0.05184937 -0.1293945
vn -0.9902344 -0.05184937 -0.1293945
vn 1 0 0
vn 1 0 0
vn 1 0 0
vn 1 0 0
vn -0.6196289 -0.777832 -0.1027832
vn -0.6196289 -0.777832 -0.1027832
vn -0.6196289 -0.777832 -0.1027832
vn -0.6196289 -0.777832 -0.1027832
g Cube_fracturepart6_0
f 3/3/3 2/2/2 1/1/1
f 1/1/1 4/4/4 3/3/3
f 1/1/1 5/5/5 4/4/4
f 5/5/5 6/6/6 4/4/4
f 5/5/5 7/7/7 6/6/6
f 10/10/10 9/9/9 8/8/8
f 8/8/8 11/11/11 10/10/10
f 8/8/8 12/12/12 11/11/11
f 8/8/8 13/13/13 12/12/12
f 13/13/13 14/14/14 12/12/12
f 17/17/17 16/16/16 15/15/15
f 18/18/18 17/17/17 15/15/15
f 21/21/21 20/20/20 19/19/19
f 22/22/22 21/21/21 19/19/19
f 19/19/19 23/23/23 22/22/22
f 23/23/23 24/24/24 22/22/22
f 27/27/27 26/26/26 25/25/25
f 28/28/28 27/27/27 25/25/25
f 25/25/25 29/29/29 28/28/28
f 29/29/29 30/30/30 28/28/28
f 33/33/33 32/32/32 31/31/31
f 34/34/34 33/33/33 31/31/31
f 37/37/37 36/36/36 35/35/35
f 38/38/38 37/37/37 35/35/35
