g Cube_fracturepart4
v -0.07889386 0.09970649 0.08727741
v 0.1552364 0.08242989 0.08727741
v -0.04013079 -0.09970649 0.08727741
v -0.1289748 -0.07307594 0.08727741
v -0.1552163 0.02401568 0.08727741
v -0.04525023 -0.08152381 -0.08727741
v 0.1322916 0.08399434 -0.08727741
v -0.07647499 0.09939934 -0.08727741
v -0.1346947 -0.05471329 -0.08727741
v -0.1552364 0.02128973 -0.08727741
v -0.1289748 -0.07307594 0.08727741
v -0.04013079 -0.09970649 0.08727741
v -0.04525023 -0.08152381 -0.08727741
v -0.1346947 -0.05471329 -0.08727741
v 0.1552364 0.08242989 0.08727741
v -0.07889386 0.09970649 0.08727741
v -0.07647499 0.09939934 -0.08727741
v 0.1322916 0.08399434 -0.08727741
v -0.1552364 0.02128973 -0.08727741
v -0.07647499 0.09939934 -0.08727741
v -0.07889386 0.09970649 0.08727741
v -0.1552163 0.02401568 0.08727741
v -0.04013079 -0.09970649 0.08727741
v 0.1552364 0.08242989 0.08727741
v 0.1322916 0.08399434 -0.08727741
v -0.04525023 -0.08152381 -0.08727741
v -0.1346947 -0.05471329 -0.08727741
v -0.1552364 0.02128973 -0.08727741
v -0.1552163 0.02401568 0.08727741
v -0.1289748 -0.07307594 0.08727741
vt 0.7348633 0.6948242
vt 0.8789063 0.6835938
vt 0.7587891 0.5629883
vt 0.7036133 0.5805664
vt 0.6875 0.6450195
vt 0.6220703 0.5751953
vt 0.512207 0.6845703
vt 0.6411133 0.6948242
vt 0.6772461 0.5927734
vt 0.6899414 0.6430664
vt 0.1074219 0.9213867
vt 0.107666 0.9213867
vt 0.107666 0.9208984
vt 0.1074219 0.9208984
vt 0.1082764 0.9213867
vt 0.1075439 0.9213867
vt 0.107605 0.9208984
vt 0.1082153 0.9208984
vt 0.1073608 0.9208984
vt 0.107605 0.9208984
vt 0.1075439 0.9213867
vt 0.1073608 0.9213867
vt 0.107666 0.9213867
vt 0.1082764 0.9213867
vt 0.1082153 0.9208984
vt 0.107666 0.9208984
vt 0.1077881 0.9208984
vt 0.1080322 0.9208984
vt 0.1080322 0.9213867
vt 0.1077271 0.9213867
vn 0 0 1
vn 0 0 1
vn 0 0 1
vn 0 0 1
vn 0 0 1
vn 0 0 -1
vn 0 0 -1
vn 0 0 -1
vn 0 0 -1
vn 0 0 -1
vn -0.2858887 -0.9541016 -0.09100342
vn -0.2858887 -0.9541016 -0.09100342
vn -0.2858887 -0.9541016 -0.09100342
vn -0.2858887 -0.9541016 -0.09100342
vn 0.0736084 0.9970703 -0.0007352829
vn 0.0736084 0.9970703 -0.0007352829
vn 0.0736084 0.9970703 -0.0007352829
vn 0.0736084 0.9970703 -0.0007352829
vn -0.7041016 0.7099609 -0.01100922
vn -0.7041016 0.7099609 -0.01100922
vn -0.7041016 0.7099609 -0.01100922
vn -0.7041016 0.7099609 -0.01100922
vn 0.6787109 -0.7280273 -0.09576416
vn 0.6787109 -0.7280273 -0.09576416
vn 0.6787109 -0.7280273 -0.09576416
vn 0.6787109 -0.7280273 -0.09576416
vn -0.965332 -0.2609863 0.004184723
vn -0.965332 -0.2609863 0.004184723
vn -0.965332 -0.2609863 0.004184723
vn -0.965332 -0.2609863 0.004184723
g Cube_fracturepart4_0
f 3/3/3 2/2/2 1/1/1
f 1/1/1 4/4/4 3/3/3
f 1/1/1 5/5/5 4/4/4
f 8/8/8 7/7/7 6/6/6
f 6/6/6 9/9/9 8/8/8
f 9/9/9 10/10/10 8/8/8
f 13/13/13 12/12/12 11/11/11
f 14/14/14 13/13/13 11/11/11
f 17/17/17 16/16/16 15/15/15
f 18/18/18 17/17/17 15/15/15
f 21/21/21 20/20/20 19/19/19
f 22/22/22 21/21/21 19/19/19
f 25/25/25 24/24/24 23/23/23
f 26/26/26 25/25/25 23/23/23
f 29/29/29 28/28/28 27/27/27
f 30/30/30 29/29/29 27/27/27
