g Cube_fracturepart3
v 0.1865779 0.3067716 0.03
v 0.2641851 0.0782467 0.03
v 0.146288 -0.279721 0.03
v -0.2650231 0.3067716 0.03
v 0.03748632 -0.3067716 0.03
v -0.2349599 -0.05408889 0.03
v 0.1508097 -0.2753682 -0.03
v 0.2650231 0.071415 -0.03
v 0.1850959 0.3067716 -0.03
v -0.2635403 0.3067716 -0.03
v 0.03521537 -0.3041076 -0.03
v -0.2334033 -0.05497482 -0.03
v 0.146288 -0.279721 0.03
v 0.2641851 0.0782467 0.03
v 0.2650231 0.071415 -0.03
v 0.1508097 -0.2753682 -0.03
v -0.2334033 -0.05497482 -0.03
v -0.2635403 0.3067716 -0.03
v -0.2650231 0.3067716 0.03
v -0.2349599 -0.05408889 0.03
v -0.2349599 -0.05408889 0.03
v 0.03748632 -0.3067716 0.03
v 0.03521537 -0.3041076 -0.03
v -0.2334033 -0.05497482 -0.03
v -0.2650231 0.3067716 0.03
v -0.2635403 0.3067716 -0.03
v 0.1850959 0.3067716 -0.03
v 0.1865779 0.3067716 0.03
v 0.2641851 0.0782467 0.03
v 0.1865779 0.3067716 0.03
v 0.1850959 0.3067716 -0.03
v 0.2650231 0.071415 -0.03
v 0.1508097 -0.2753682 -0.03
v 0.03521537 -0.3041076 -0.03
v 0.03748632 -0.3067716 0.03
v 0.146288 -0.279721 0.03
vt 0.4626465 1
vt 0.4885254 0.8476563
vt 0.4492188 0.6088867
vt 0.3120117 1
vt 0.4128418 0.5908203
vt 0.3220215 0.7592773
vt 0.5493164 0.6118164
vt 0.5112305 0.8432617
vt 0.5380859 1
vt 0.6875 1
vt 0.5878906 0.5927734
vt 0.6772461 0.7587891
vt 0.5541992 0.5097656
vt 0.6728516 0.5097656
vt 0.6704102 0.4899902
vt 0.5556641 0.4899902
vt 0.628418 0.4899902
vt 0.7485352 0.4899902
vt 0.7485352 0.5097656
vt 0.6289063 0.5097656
vt 0.3232422 0.5097656
vt 0.4135742 0.5097656
vt 0.4128418 0.4899902
vt 0.3237305 0.4899902
vt 0.3120117 0
vt 0.3125 1
vt 0.4621582 1
vt 0.4626465 0
vt 0.6728516 0.5097656
vt 0.7485352 0.5097656
vt 0.7485352 0.4899902
vt 0.6704102 0.4899902
vt 0.4509277 0.4899902
vt 0.4128418 0.4899902
vt 0.4135742 0.5097656
vt 0.4494629 0.5097656
vn 0 0 1
vn 0 0 1
vn 0 0 1
vn 0 0 1
vn 0 0 1
vn 0 0 1
vn 0 0 -1
vn 0 0 -1
vn 0 0 -1
vn 0 0 -1
vn 0 0 -1
vn 0 0 -1
vn 0.9487305 -0.3125 0.04882813
vn 0.9487305 -0.3125 0.04882813
vn 0.9487305 -0.3125 0.04882813
vn 0.9487305 -0.3125 0.04882813
vn -0.9960938 -0.08300781 -0.02462769
vn -0.9960938 -0.08300781 -0.02462769
vn -0.9960938 -0.08300781 -0.02462769
vn -0.9960938 -0.08300781 -0.02462769
vn -0.6801758 -0.7333984 -0.006816864
vn -0.6801758 -0.7333984 -0.006816864
vn -0.6801758 -0.7333984 -0.006816864
vn -0.6801758 -0.7333984 -0.006816864
vn 0 1 0
vn 0 1 0
vn 0 1 0
vn 0 1 0
vn 0.9467773 0.3215332 -0.02337646
vn 0.9467773 0.3215332 -0.02337646
vn 0.9467773 0.3215332 -0.02337646
vn 0.9467773 0.3215332 -0.02337646
vn 0.2409668 -0.9692383 -0.05215454
vn 0.2409668 -0.9692383 -0.05215454
vn 0.2409668 -0.9692383 -0.05215454
vn 0.2409668 -0.9692383 -0.05215454
g Cube_fracturepart3_0
f 3/3/3 2/2/2 1/1/1
f 1/1/1 4/4/4 3/3/3
f 4/4/4 5/5/5 3/3/3
f 4/4/4 6/6/6 5/5/5
f 9/9/9 8/8/8 7/7/7
f 7/7/7 10/10/10 9/9/9
f 7/7/7 11/11/11 10/10/10
f 11/11/11 12/12/12 10/10/10
f 15/15/15 14/14/14 13/13/13
f 16/16/16 15/15/15 13/13/13
f 19/19/19 18/18/18 17/17/17
f 20/20/20 19/19/19 17/17/17
f 23/23/23 22/22/22 21/21/21
f 24/24/24 23/23/23 21/21/21
f 27/27/27 26/26/26 25/25/25
f 28/28/28 27/27/27 25/25/25
f 31/31/31 30/30/30 29/29/29
f 32/32/32 31/31/31 29/29/29
f 35/35/35 34/34/34 33/33/33
f 36/36/36 35/35/35 33/33/33
